<?xml version="1.0" encoding="utf-8"?>
<!-- Generator: Adobe Illustrator 21.1.0, SVG Export Plug-In . SVG Version: 6.00 Build 0)  -->
<svg version="1.1" id="artwork" xmlns="http://www.w3.org/2000/svg" xmlns:xlink="http://www.w3.org/1999/xlink" x="0px" y="0px"
	 viewBox="0 0 126.8 40" style="enable-background:new 0 0 126.8 40;" xml:space="preserve">
<style type="text/css">
	.st0{fill:#FFFFFF;stroke:#FFFFFF;stroke-width:0.2;stroke-miterlimit:10;}
	.st1{fill:#FFFFFF;}
	.st2{fill:url(#SVGID_1_);}
	.st3{fill:url(#SVGID_2_);}
	.st4{fill:url(#SVGID_3_);}
	.st5{fill:url(#SVGID_4_);}
	.st6{opacity:0.2;enable-background:new    ;}
	.st7{opacity:0.12;enable-background:new    ;}
	.st8{opacity:0.25;fill:#FFFFFF;enable-background:new    ;}
</style>
<g>
	<g>
		<g>
			<path d="M126,40H1c-2.8,0-5-2.2-5-5V5c0-2.8,2.2-5,5-5h125c2.8,0,5,2.2,5,5v30C131,37.8,128.8,40,126,40z"/>
		</g>
		<g>
			<path class="st0" d="M43.4,10.2c0,0.8-0.2,1.5-0.7,2c-0.6,0.6-1.3,0.9-2.2,0.9s-1.6-0.3-2.2-0.9c-0.6-0.6-0.9-1.3-0.9-2.2
				s0.3-1.6,0.9-2.2c0.6-0.6,1.3-0.9,2.2-0.9c0.4,0,0.8,0.1,1.2,0.3c0.4,0.2,0.7,0.4,0.9,0.7l-0.5,0.5c-0.4-0.5-0.9-0.7-1.6-0.7
				c-0.6,0-1.2,0.2-1.6,0.7c-0.5,0.4-0.7,1-0.7,1.7s0.2,1.3,0.7,1.7s1,0.7,1.6,0.7c0.7,0,1.2-0.2,1.7-0.7c0.3-0.3,0.5-0.7,0.5-1.2
				h-2.2V9.8h2.9C43.4,9.9,43.4,10.1,43.4,10.2z"/>
			<path class="st0" d="M48,7.7h-2.7v1.9h2.5v0.7h-2.5v1.9H48V13h-3.5V7H48V7.7z"/>
			<path class="st0" d="M51.3,13h-0.8V7.7h-1.7V7H53v0.7h-1.7V13z"/>
			<path class="st0" d="M55.9,13V7h0.8v6H55.9z"/>
			<path class="st0" d="M60.1,13h-0.8V7.7h-1.7V7h4.1v0.7H60L60.1,13L60.1,13z"/>
			<path class="st0" d="M69.6,12.2c-0.6,0.6-1.3,0.9-2.2,0.9c-0.9,0-1.6-0.3-2.2-0.9c-0.6-0.6-0.9-1.3-0.9-2.2s0.3-1.6,0.9-2.2
				s1.3-0.9,2.2-0.9c0.9,0,1.6,0.3,2.2,0.9s0.9,1.3,0.9,2.2S70.2,11.6,69.6,12.2z M65.8,11.7c0.4,0.4,1,0.7,1.6,0.7s1.2-0.2,1.6-0.7
				c0.4-0.4,0.7-1,0.7-1.7S69.5,8.7,69,8.3c-0.4-0.4-1-0.7-1.6-0.7s-1.2,0.2-1.6,0.7c-0.4,0.4-0.7,1-0.7,1.7S65.3,11.3,65.8,11.7z"
				/>
			<path class="st0" d="M71.6,13V7h0.9l2.9,4.7l0,0v-1.2V7h0.8v6h-0.8l-3.1-4.9l0,0v1.2V13H71.6z"/>
		</g>
		<path class="st1" d="M64.1,21.8c-2.4,0-4.3,1.8-4.3,4.3c0,2.4,1.9,4.3,4.3,4.3s4.3-1.8,4.3-4.3C68.4,23.5,66.5,21.8,64.1,21.8z
			 M64.1,28.6c-1.3,0-2.4-1.1-2.4-2.6s1.1-2.6,2.4-2.6s2.4,1,2.4,2.6C66.5,27.5,65.4,28.6,64.1,28.6z M54.8,21.8
			c-2.4,0-4.3,1.8-4.3,4.3c0,2.4,1.9,4.3,4.3,4.3c2.4,0,4.3-1.8,4.3-4.3C59.1,23.5,57.2,21.8,54.8,21.8z M54.8,28.6
			c-1.3,0-2.4-1.1-2.4-2.6s1.1-2.6,2.4-2.6c1.3,0,2.4,1,2.4,2.6C57.2,27.5,56.1,28.6,54.8,28.6z M43.7,23.1v1.8H48
			c-0.1,1-0.5,1.8-1,2.3c-0.6,0.6-1.6,1.3-3.3,1.3c-2.7,0-4.7-2.1-4.7-4.8s2.1-4.8,4.7-4.8c1.4,0,2.5,0.6,3.3,1.3l1.3-1.3
			c-1.1-1-2.5-1.8-4.5-1.8c-3.6,0-6.7,3-6.7,6.6s3.1,6.6,6.7,6.6c2,0,3.4-0.6,4.6-1.9c1.2-1.2,1.6-2.9,1.6-4.2c0-0.4,0-0.8-0.1-1.1
			H43.7z M89.1,24.5c-0.4-1-1.4-2.7-3.6-2.7s-4,1.7-4,4.3c0,2.4,1.8,4.3,4.2,4.3c1.9,0,3.1-1.2,3.5-1.9l-1.4-1
			c-0.5,0.7-1.1,1.2-2.1,1.2s-1.6-0.4-2.1-1.3l5.7-2.4L89.1,24.5z M83.3,25.9c0-1.6,1.3-2.5,2.2-2.5c0.7,0,1.4,0.4,1.6,0.9
			L83.3,25.9z M78.6,30h1.9V17.5h-1.9V30z M75.6,22.7L75.6,22.7c-0.5-0.5-1.3-1-2.3-1c-2.1,0-4.1,1.9-4.1,4.3s1.9,4.2,4.1,4.2
			c1,0,1.8-0.5,2.2-1h0.1v0.6c0,1.6-0.9,2.5-2.3,2.5c-1.1,0-1.9-0.8-2.1-1.5l-1.6,0.7c0.5,1.1,1.7,2.5,3.8,2.5c2.2,0,4-1.3,4-4.4V22
			h-1.8C75.6,22,75.6,22.7,75.6,22.7z M73.4,28.6c-1.3,0-2.4-1.1-2.4-2.6s1.1-2.6,2.4-2.6s2.3,1.1,2.3,2.6
			C75.7,27.5,74.7,28.6,73.4,28.6z M97.8,17.5h-4.5V30h1.9v-4.7h2.6c2.1,0,4.1-1.5,4.1-3.9S99.9,17.5,97.8,17.5z M97.9,23.5h-2.7
			v-4.3h2.7c1.4,0,2.2,1.2,2.2,2.1C100,22.4,99.2,23.5,97.9,23.5z M109.4,21.7c-1.4,0-2.8,0.6-3.3,1.9l1.7,0.7
			c0.4-0.7,1-0.9,1.7-0.9c1,0,1.9,0.6,2,1.6v0.1c-0.3-0.2-1.1-0.5-1.9-0.5c-1.8,0-3.6,1-3.6,2.8c0,1.7,1.5,2.8,3.1,2.8
			c1.3,0,1.9-0.6,2.4-1.2h0.1v1h1.8v-4.8C113.2,23,111.5,21.7,109.4,21.7z M109.2,28.6c-0.6,0-1.5-0.3-1.5-1.1c0-1,1.1-1.3,2-1.3
			c0.8,0,1.2,0.2,1.7,0.4C111.2,27.8,110.2,28.6,109.2,28.6z M119.7,22l-2.1,5.4h-0.1l-2.2-5.4h-2l3.3,7.6l-1.9,4.2h1.9l5.1-11.8
			H119.7z M102.9,30h1.9V17.5h-1.9V30z"/>
		<g>
			
				<linearGradient id="SVGID_1_" gradientUnits="userSpaceOnUse" x1="17.7949" y1="1396.705" x2="1.0125" y2="1413.4873" gradientTransform="matrix(1 0 0 1 0 -1387.9998)">
				<stop  offset="0" style="stop-color:#00A0FF"/>
				<stop  offset="6.574450e-03" style="stop-color:#00A1FF"/>
				<stop  offset="0.2601" style="stop-color:#00BEFF"/>
				<stop  offset="0.5122" style="stop-color:#00D2FF"/>
				<stop  offset="0.7604" style="stop-color:#00DFFF"/>
				<stop  offset="1" style="stop-color:#00E3FF"/>
			</linearGradient>
			<path class="st2" d="M6.4,7.5C6.1,7.8,6,8.3,6,8.9V31c0,0.6,0.2,1.1,0.5,1.4l0.1,0.1L19,20.1V20v-0.1L6.4,7.5L6.4,7.5z"/>
			
				<linearGradient id="SVGID_2_" gradientUnits="userSpaceOnUse" x1="29.8343" y1="1408.0498" x2="5.6374" y2="1408.0498" gradientTransform="matrix(1 0 0 1 0 -1387.9998)">
				<stop  offset="0" style="stop-color:#FFE000"/>
				<stop  offset="0.4087" style="stop-color:#FFBD00"/>
				<stop  offset="0.7754" style="stop-color:#FFA500"/>
				<stop  offset="1" style="stop-color:#FF9C00"/>
			</linearGradient>
			<path class="st3" d="M23,24.3l-4.1-4.1V20v-0.1l4.1-4.1l0.1,0.1l4.9,2.8c1.4,0.8,1.4,2.1,0,2.9L23,24.3L23,24.3z"/>
			
				<linearGradient id="SVGID_3_" gradientUnits="userSpaceOnUse" x1="20.8153" y1="1410.2844" x2="-1.943" y2="1433.0427" gradientTransform="matrix(1 0 0 1 0 -1387.9998)">
				<stop  offset="0" style="stop-color:#FF3A44"/>
				<stop  offset="1" style="stop-color:#C31162"/>
			</linearGradient>
			<path class="st4" d="M23.1,24.2L18.9,20L6.4,32.5C6.9,33,7.6,33,8.5,32.6L23.1,24.2"/>
			
				<linearGradient id="SVGID_4_" gradientUnits="userSpaceOnUse" x1="3.2617" y1="1388.2117" x2="13.4243" y2="1398.3741" gradientTransform="matrix(1 0 0 1 0 -1387.9998)">
				<stop  offset="0" style="stop-color:#32A071"/>
				<stop  offset="6.850000e-02" style="stop-color:#2DA771"/>
				<stop  offset="0.4762" style="stop-color:#15CF74"/>
				<stop  offset="0.8009" style="stop-color:#06E775"/>
				<stop  offset="1" style="stop-color:#00F076"/>
			</linearGradient>
			<path class="st5" d="M23.1,15.8L8.5,7.5C7.6,7,6.9,7.1,6.4,7.6L18.9,20L23.1,15.8z"/>
			<g>
				<path class="st6" d="M23,24.1L8.5,32.3c-0.8,0.5-1.5,0.4-2,0l0,0l-0.1,0.1l0,0l0.1,0.1l0,0c0.5,0.4,1.2,0.5,2,0L23,24.1L23,24.1
					z"/>
				<path class="st7" d="M6.4,32.3C6.1,32,6,31.5,6,30.9V31c0,0.6,0.2,1.1,0.5,1.4v-0.1C6.5,32.3,6.4,32.3,6.4,32.3z"/>
			</g>
			<path class="st7" d="M28,21.3l-5,2.8l0.1,0.1l4.9-2.8c0.7-0.4,1-0.9,1-1.4l0,0C29,20.5,28.6,20.9,28,21.3z"/>
			<path class="st8" d="M8.5,7.6L28,18.7c0.6,0.4,1,0.8,1,1.3l0,0c0-0.5-0.3-1-1-1.4L8.5,7.6C7.1,6.7,6,7.3,6,8.9V9
				C6,7.5,7.1,6.8,8.5,7.6z"/>
		</g>
	</g>
</g>
</svg>
