<?xml version="1.0" encoding="utf-8"?>
<!-- Generator: Adobe Illustrator 21.1.0, SVG Export Plug-In . SVG Version: 6.00 Build 0)  -->
<svg version="1.1" id="Шар_1" xmlns="http://www.w3.org/2000/svg" xmlns:xlink="http://www.w3.org/1999/xlink" x="0px" y="0px"
	 viewBox="0 0 859.5 302.7" style="enable-background:new 0 0 859.5 302.7;" xml:space="preserve">
<style type="text/css">
	.st0{fill:#F25022;}
	.st1{fill:#7FBA00;}
	.st2{fill:#00A4EF;}
	.st3{fill:#FFB900;}
	.st4{fill:#FFFFFF;}
</style>
<g>
	<g id="Layer_2">
		<rect width="859.5" height="307.5"/>
	</g>
	<g id="Layer_1">
		<rect x="68.2" y="66.3" class="st0" width="83.8" height="83.8"/>
		<rect x="160.7" y="66.3" class="st1" width="83.8" height="83.8"/>
		<rect x="68.2" y="158.7" class="st2" width="83.8" height="83.8"/>
		<rect x="160.7" y="158.7" class="st3" width="83.8" height="83.8"/>
		<path class="st4" d="M406,160.7c0-2.5,0.9-4.5,2.7-6.2c1.8-1.7,3.9-2.5,6.4-2.5c2.6,0,4.8,0.9,6.5,2.6c1.7,1.7,2.6,3.8,2.6,6.1
			c0,2.4-0.9,4.5-2.7,6.1c-1.8,1.7-3.9,2.5-6.5,2.5s-4.7-0.8-6.5-2.5C406.9,165.1,406,163.1,406,160.7 M422.5,242.5h-14.9V179h14.9
			V242.5z"/>
		<path class="st4" d="M467.9,231.6c2.2,0,4.7-0.5,7.4-1.5c2.7-1,5.1-2.4,7.4-4.1v13.9c-2.4,1.4-5.1,2.4-8.1,3.1
			c-3,0.7-6.4,1.1-10,1.1c-9.3,0-16.9-3-22.8-8.9s-8.8-13.5-8.8-22.6c0-10.2,3-18.6,9-25.2c6-6.6,14.4-9.9,25.4-9.9
			c2.8,0,5.6,0.4,8.5,1.1c2.9,0.7,5.1,1.6,6.8,2.5v14.3c-2.3-1.7-4.7-3-7.1-3.9s-4.9-1.4-7.4-1.4c-5.9,0-10.6,1.9-14.3,5.7
			c-3.6,3.8-5.4,9-5.4,15.5c0,6.4,1.7,11.4,5.2,15C457.2,229.9,461.9,231.6,467.9,231.6"/>
		<path class="st4" d="M525.2,178c1.2,0,2.3,0.1,3.2,0.2c0.9,0.2,1.8,0.4,2.4,0.6v15.1c-0.8-0.6-1.9-1.1-3.4-1.6s-3.3-0.8-5.5-0.8
			c-3.7,0-6.8,1.5-9.3,4.6s-3.8,7.8-3.8,14.3v32.1h-14.9V179h14.9v10h0.2c1.4-3.5,3.4-6.2,6.2-8.1C518,179,521.3,178,525.2,178"/>
		<path class="st4" d="M531.6,211.7c0-10.5,3-18.8,8.9-25c5.9-6.1,14.2-9.2,24.7-9.2c9.9,0,17.7,3,23.3,8.9s8.4,13.9,8.4,23.9
			c0,10.3-3,18.5-8.9,24.6s-14,9.1-24.2,9.1c-9.8,0-17.7-2.9-23.4-8.7C534.5,229.6,531.6,221.7,531.6,211.7 M547.2,211.2
			c0,6.6,1.5,11.7,4.5,15.2s7.3,5.2,12.9,5.2c5.4,0,9.6-1.7,12.4-5.2s4.3-8.7,4.3-15.6c0-6.8-1.5-12-4.4-15.5s-7.1-5.2-12.4-5.2
			c-5.5,0-9.7,1.8-12.8,5.5C548.7,199.3,547.2,204.4,547.2,211.2"/>
		<path class="st4" d="M619.1,195.7c0,2.1,0.7,3.8,2,5c1.4,1.2,4.4,2.7,9,4.6c6,2.4,10.2,5.1,12.6,8.1c2.4,3,3.6,6.6,3.6,10.8
			c0,6-2.3,10.8-6.9,14.4c-4.6,3.6-10.8,5.4-18.6,5.4c-2.6,0-5.5-0.3-8.7-1c-3.2-0.6-5.9-1.5-8.1-2.4v-14.7c2.7,1.9,5.6,3.4,8.8,4.5
			c3.1,1.1,6,1.7,8.5,1.7c3.4,0,5.9-0.5,7.5-1.4s2.4-2.5,2.4-4.8c0-2.1-0.8-3.8-2.5-5.2s-4.8-3.1-9.5-4.9c-5.5-2.3-9.4-4.9-11.7-7.8
			c-2.3-2.9-3.5-6.6-3.5-11c0-5.7,2.3-10.4,6.8-14.1c4.5-3.7,10.4-5.5,17.7-5.5c2.2,0,4.7,0.2,7.5,0.7s5.1,1.1,6.9,1.9v14.2
			c-2-1.3-4.3-2.4-6.9-3.4c-2.6-0.9-5.3-1.4-7.8-1.4c-2.8,0-5.1,0.6-6.6,1.7C619.9,192.2,619.1,193.8,619.1,195.7"/>
		<path class="st4" d="M652.9,211.7c0-10.5,3-18.8,8.9-25c5.9-6.1,14.2-9.2,24.7-9.2c9.9,0,17.7,3,23.3,8.9s8.4,13.9,8.4,23.9
			c0,10.3-3,18.5-8.9,24.6s-14,9.1-24.2,9.1c-9.8,0-17.7-2.9-23.4-8.7C655.8,229.6,652.9,221.7,652.9,211.7 M668.4,211.2
			c0,6.6,1.5,11.7,4.5,15.2s7.3,5.2,12.9,5.2c5.4,0,9.6-1.7,12.4-5.2s4.3-8.7,4.3-15.6c0-6.8-1.5-12-4.4-15.5s-7.1-5.2-12.4-5.2
			c-5.5,0-9.7,1.8-12.8,5.5C669.9,199.3,668.4,204.4,668.4,211.2"/>
		<path class="st4" d="M767.5,191.3v32.6c0,6.8,1.6,11.8,4.7,15.2c3.1,3.4,7.9,5,14.2,5c2.1,0,4.3-0.2,6.5-0.7s3.8-0.9,4.7-1.5
			v-12.4c-0.9,0.6-2,1.1-3.2,1.5s-2.3,0.6-3.1,0.6c-3,0-5.3-0.8-6.7-2.4c-1.4-1.6-2.1-4.4-2.1-8.3v-29.7h15.2V179h-15.1v-18.8
			l-15,4.6v14.3h-22.3v-7.7c0-3.8,0.8-6.7,2.5-8.7s4.1-2.9,7.2-2.9c1.6,0,3,0.2,4.3,0.6c1.2,0.4,2.1,0.8,2.6,1.1v-12.9
			c-1.1-0.4-2.3-0.6-3.7-0.8s-3-0.3-4.8-0.3c-6.8,0-12.4,2.1-16.7,6.4c-4.3,4.3-6.5,9.7-6.5,16.4v8.8h-10.6v12.2h10.6v51.3h15.1
			v-51.3L767.5,191.3L767.5,191.3z"/>
		<polygon class="st4" points="393.2,153.9 393.2,242.5 377.8,242.5 377.8,173.1 377.6,173.1 350.1,242.5 339.9,242.5 311.7,173.1 
			311.5,173.1 311.5,242.5 297.3,242.5 297.3,153.9 319.3,153.9 344.8,219.6 345.2,219.6 372.1,153.9 		"/>
		<path class="st4" d="M337.7,115.6c-5.3,3-11.3,4.5-18,4.5c-5.1,0-9.6-1.1-13.6-3.4c-3.9-2.2-7-5.4-9.1-9.5s-3.2-8.7-3.2-13.8
			c0-5.4,1.2-10.3,3.5-14.5s5.6-7.6,9.9-10s9.1-3.6,14.5-3.6c2.7,0,5.4,0.3,8.1,0.8s4.9,1.2,6.6,2v8c-4-2.7-9.1-4-15.3-4
			c-3.7,0-7,0.9-10,2.7c-3,1.8-5.3,4.3-6.9,7.4c-1.6,3.2-2.4,6.8-2.4,10.8c0,6.3,1.7,11.3,5,15s7.9,5.5,13.7,5.5
			c3.7,0,7-0.7,9.8-2.2V97.6H319V91h18.7V115.6z"/>
		<path class="st4" d="M380.8,102.3h-26.2c0.1,3.8,1.3,6.7,3.3,8.8c2.1,2,4.8,3.1,8.2,3.1c4.5,0,8.4-1.3,11.8-3.9v6.4
			c-1.5,1-3.4,1.9-5.7,2.5c-2.3,0.6-4.7,0.9-7.1,0.9c-5.7,0-10.2-1.7-13.3-5.1c-3.1-3.4-4.7-8.2-4.7-14.4c0-3.8,0.8-7.3,2.3-10.3
			c1.5-3.1,3.7-5.5,6.4-7.2c2.7-1.7,5.8-2.6,9.1-2.6c4.9,0,8.8,1.6,11.6,4.8c2.8,3.2,4.2,7.6,4.2,13.3v3.7
			C380.7,102.3,380.8,102.3,380.8,102.3z M373.5,96.6c0-3.3-0.8-5.8-2.3-7.5s-3.6-2.6-6.4-2.6c-2.5,0-4.7,0.9-6.6,2.7
			s-3,4.3-3.6,7.4H373.5z"/>
		<path class="st4" d="M409.2,118.8c-0.7,0.4-1.6,0.7-2.9,0.9c-1.2,0.2-2.3,0.3-3.3,0.3c-7,0-10.5-3.9-10.5-11.6v-21h-6.4v-6h6.4v-9
			l7.3-2.3v11.2h9.3v6h-9.3v19.8c0,2.5,0.4,4.3,1.2,5.3c0.8,1,2.2,1.5,4.3,1.5c1.4,0,2.7-0.4,3.8-1.2v6.1H409.2z"/>
		<path class="st4" d="M445.4,68c0,1.2-0.4,2.2-1.3,3.1s-2,1.3-3.3,1.3s-2.4-0.4-3.3-1.3c-0.9-0.8-1.3-1.9-1.3-3.2
			c0-1.3,0.5-2.4,1.4-3.2c0.9-0.8,2-1.3,3.2-1.3s2.3,0.4,3.2,1.3C445,65.7,445.4,66.7,445.4,68 M444.4,119.2h-7.3V81.4h7.3V119.2z"
			/>
		<path class="st4" d="M476.1,118.8c-0.7,0.4-1.6,0.7-2.9,0.9c-1.2,0.2-2.3,0.3-3.3,0.3c-7,0-10.5-3.9-10.5-11.6v-21H453v-6h6.4v-9
			l7.3-2.3v11.2h9.3v6h-9.3v19.8c0,2.5,0.4,4.3,1.2,5.3c0.8,1,2.2,1.5,4.3,1.5c1.4,0,2.7-0.4,3.8-1.2v6.1H476.1z"/>
		<path class="st4" d="M523.9,69.4c-1.2-0.6-2.5-1-4-1c-4.1,0-6.1,2.5-6.1,7.5v5.4h8.6v6h-8.6v31.8h-7.3V87.4h-6.4v-6h6.4v-5.8
			c0-4,1.1-7.2,3.4-9.6c2.3-2.4,5.4-3.6,9.4-3.6c2,0,3.5,0.2,4.7,0.7v6.3H523.9z"/>
		<path class="st4" d="M550.8,88.7c-0.4-0.3-1.2-0.6-2.2-0.9c-1-0.2-1.9-0.4-2.6-0.4c-2.6,0-4.7,1.2-6.3,3.5s-2.4,5.3-2.4,9v19.3
			H530V81.4h7.3V89h0.2c0.8-2.6,2.1-4.6,3.8-6.1s3.7-2.2,5.9-2.2c1.5,0,2.7,0.2,3.5,0.5L550.8,88.7L550.8,88.7z"/>
		<path class="st4" d="M592.5,100.1c0,6.1-1.8,11-5.3,14.6s-8.2,5.4-14,5.4c-5.7,0-10.3-1.8-13.7-5.3s-5.1-8.2-5.1-14.1
			c0-6.3,1.8-11.2,5.3-14.8c3.5-3.6,8.3-5.4,14.4-5.4c5.7,0,10.2,1.7,13.4,5.2C590.9,89.2,592.5,94,592.5,100.1 M585,100.3
			c0-4.5-1-7.9-2.9-10.2c-2-2.3-4.7-3.5-8.3-3.5s-6.5,1.2-8.6,3.7c-2.1,2.4-3.1,5.9-3.1,10.3c0,4.3,1,7.6,3.1,10s4.9,3.6,8.6,3.6
			c3.7,0,6.5-1.2,8.4-3.5C584,108.2,585,104.8,585,100.3"/>
		<path class="st4" d="M657.8,119.2h-7.3V97.7c0-3.9-0.6-6.7-1.8-8.5s-3.3-2.6-6.2-2.6c-2.4,0-4.5,1.1-6.1,3.3
			c-1.7,2.2-2.5,4.9-2.5,7.9v21.4h-7.3V97c0-6.9-2.7-10.4-8-10.4c-2.5,0-4.6,1.1-6.2,3.2s-2.4,4.8-2.4,8.1v21.4h-7.3V81.4h7.3v5.9
			h0.1c2.7-4.6,6.7-6.8,11.8-6.8c2.4,0,4.6,0.7,6.6,2c1.9,1.3,3.3,3.2,4.2,5.6c1.5-2.6,3.2-4.5,5.3-5.8c2.1-1.2,4.5-1.9,7.3-1.9
			c8.3,0,12.4,5.1,12.4,15.4v23.4C657.7,119.2,657.8,119.2,657.8,119.2z"/>
	</g>
</g>
</svg>
